<?xml version="1.0" encoding="iso-8859-1"?>
<!-- Generator: Adobe Illustrator 19.0.0, SVG Export Plug-In . SVG Version: 6.00 Build 0)  -->
<svg version="1.1" id="Layer_1" xmlns="http://www.w3.org/2000/svg" xmlns:xlink="http://www.w3.org/1999/xlink" x="0px" y="0px"
	 viewBox="0 0 496 496" style="enable-background:new 0 0 496 496;" xml:space="preserve">
<g>
	<g>
		<g>
			<path d="M0,0v400h176v24c0,39.696,32.304,72,72,72s72-32.304,72-72v-24h176V0H0z M304,424c0,30.88-25.12,56-56,56
				s-56-25.12-56-56v-8h112V424z M304,400H192v-16h112V400z M203.312,232L248,187.312L292.688,232H203.312z M264,248v120h-32V248
				H264z M216,248v120h-24V248H216z M304,368h-24V248h24V368z M248,164.688l-72,72V288H48V112h400v176H320v-51.312L248,164.688z
				 M480,384H320v-80h144V96H32v208h144v80H16V80h464V384z M480,64H16V16h464V64z"/>
			<rect x="32" y="32" width="16" height="16"/>
			<rect x="64" y="32" width="16" height="16"/>
			<rect x="96" y="32" width="16" height="16"/>
			<rect x="240" y="128" width="16" height="24"/>
			<rect x="186" y="145.397" transform="matrix(-0.5 -0.866 0.866 -0.5 164.158 401.5681)" width="23.999" height="16"/>
			<rect x="149.372" y="182.038" transform="matrix(-0.866 -0.5 0.5 -0.866 206.102 435.3027)" width="23.999" height="16"/>
			<rect x="136" y="232" width="24" height="16"/>
			<rect x="336" y="232" width="24" height="16"/>
			<rect x="326.637" y="177.994" transform="matrix(0.4999 0.8661 -0.8661 0.4999 331.9055 -194.8072)" width="16" height="24"/>
			<rect x="289.963" y="141.397" transform="matrix(-0.8661 -0.4999 0.4999 -0.8661 479.3432 435.2025)" width="16" height="24"/>
			<rect x="32" y="320" width="128" height="16"/>
			<rect x="32" y="352" width="128" height="16"/>
			<rect x="336" y="320" width="128" height="16"/>
			<rect x="336" y="352" width="128" height="16"/>
		</g>
	</g>
</g>
<g>
</g>
<g>
</g>
<g>
</g>
<g>
</g>
<g>
</g>
<g>
</g>
<g>
</g>
<g>
</g>
<g>
</g>
<g>
</g>
<g>
</g>
<g>
</g>
<g>
</g>
<g>
</g>
<g>
</g>
</svg>
