<?xml version="1.0" encoding="iso-8859-1"?>
<svg version="1.1" id="Layer_1" xmlns="http://www.w3.org/2000/svg" xmlns:xlink="http://www.w3.org/1999/xlink" x="0px" y="0px"
	 viewBox="0 0 512 512" style="enable-background:new 0 0 512 512;" xml:space="preserve">
<g>
	<g>
		<path d="M512,85.332c0-5.891-4.781-10.672-10.672-10.672V53.332c5.891,0,10.672-4.781,10.672-10.672
			c0-5.891-4.781-10.664-10.672-10.664V21.332h-21.313c0-5.891-4.781-10.672-10.672-10.672s-10.672,4.781-10.672,10.672h-21.328
			c0-5.891-4.781-10.672-10.672-10.672s-10.656,4.781-10.656,10.672h-21.344c0-5.891-4.766-10.672-10.656-10.672
			s-10.672,4.781-10.672,10.672h-21.328c0-5.891-4.781-10.672-10.672-10.672s-10.672,4.781-10.672,10.672h-21.328
			c0-5.891-4.781-10.672-10.672-10.672s-10.656,4.781-10.656,10.672h-21.344c0-5.891-4.766-10.672-10.656-10.672
			s-10.672,4.781-10.672,10.672h-21.328c0-5.891-4.781-10.672-10.672-10.672s-10.672,4.781-10.672,10.672h-21.328
			c0-5.891-4.781-10.672-10.672-10.672s-10.656,4.781-10.656,10.672h-21.344c0-5.891-4.766-10.672-10.656-10.672
			s-10.672,4.781-10.672,10.672H96.016c0-5.891-4.781-10.672-10.672-10.672s-10.672,4.781-10.672,10.672H53.344
			c0-5.891-4.781-10.672-10.672-10.672s-10.656,4.781-10.656,10.672H10.672v10.664C4.781,31.996,0,36.77,0,42.66
			c0,5.89,4.781,10.672,10.672,10.672V74.66C4.781,74.66,0,79.441,0,85.332c0,5.891,4.781,10.664,10.672,10.664v21.336
			C4.781,117.332,0,122.105,0,127.996s4.781,10.664,10.672,10.664v21.336C4.781,159.996,0,164.77,0,170.66
			c0,5.89,4.781,10.672,10.672,10.672v21.328C4.781,202.66,0,207.441,0,213.332c0,5.891,4.781,10.664,10.672,10.664v21.336
			C4.781,245.332,0,250.105,0,255.996c0,5.891,4.781,10.664,10.672,10.664v21.336C4.781,287.996,0,292.777,0,298.652
			c0,5.906,4.781,10.688,10.672,10.688v21.313C4.781,330.652,0,335.434,0,341.34c0,5.875,4.781,10.656,10.672,10.656v21.344
			C4.781,373.34,0,378.105,0,383.996s4.781,10.656,10.672,10.656v21.344C4.781,415.996,0,420.777,0,426.652
			c0,5.906,4.781,10.688,10.672,10.688v21.313C4.781,458.652,0,463.434,0,469.34c0,5.875,4.781,10.656,10.672,10.656v10.656H32
			c0,5.906,4.781,10.688,10.672,10.688s10.656-4.781,10.656-10.688h21.344c0,5.906,4.766,10.688,10.656,10.688
			S96,496.559,96,490.652h21.328c0,5.906,4.781,10.688,10.672,10.688s10.672-4.781,10.672-10.688H160
			c0,5.906,4.781,10.688,10.672,10.688s10.656-4.781,10.656-10.688h21.344c0,5.906,4.766,10.688,10.656,10.688
			S224,496.559,224,490.652h21.328c0,5.906,4.781,10.688,10.672,10.688s10.672-4.781,10.672-10.688H288
			c0,5.906,4.781,10.688,10.672,10.688s10.656-4.781,10.656-10.688h21.344c0,5.906,4.766,10.688,10.656,10.688
			S352,496.559,352,490.652h21.328c0,5.906,4.781,10.688,10.672,10.688s10.672-4.781,10.672-10.688H416
			c0,5.906,4.781,10.688,10.672,10.688s10.656-4.781,10.656-10.688h21.344c0,5.906,4.766,10.688,10.656,10.688
			S480,496.559,480,490.652h21.328v-10.656c5.891,0,10.672-4.781,10.672-10.656c0-5.906-4.781-10.688-10.672-10.688V437.34
			c5.891,0,10.672-4.781,10.672-10.688c0-5.875-4.781-10.656-10.672-10.656v-21.344c5.891,0,10.672-4.766,10.672-10.656
			s-4.781-10.656-10.672-10.656v-21.344c5.891,0,10.672-4.781,10.672-10.656c0-5.906-4.781-10.688-10.672-10.688V309.34
			c5.891,0,10.672-4.781,10.672-10.688c0-5.875-4.781-10.656-10.672-10.656V266.66c5.891,0,10.672-4.773,10.672-10.664
			s-4.781-10.664-10.672-10.664v-21.336c5.891,0,10.672-4.773,10.672-10.664c0-5.891-4.781-10.672-10.672-10.672v-21.328
			c5.891,0,10.672-4.781,10.672-10.672s-4.781-10.664-10.672-10.664V138.66c5.891,0,10.672-4.773,10.672-10.664
			c0-5.891-4.781-10.664-10.672-10.664V95.996C507.219,95.996,512,91.223,512,85.332z M32,469.34v-16.938l16.922,16.938H32z
			 M480,106.66c-5.891,0-10.672,4.781-10.672,10.672c0,5.891,4.781,10.664,10.672,10.664V469.34H298.672H256h-42.672H79.078
			L32,422.246v-294.25c5.891,0,10.672-4.773,10.672-10.664c0-5.891-4.781-10.672-10.672-10.672v-64h448V106.66z"/>
	</g>
</g>
<g>
	<g>
		<path d="M448,170.66V85.332c0-11.781-9.547-21.336-21.328-21.336H85.359c-11.781,0-21.344,9.555-21.344,21.336v85.328
			l-10.688,21.336v128l10.688,21.344v85.312h0.001c0,11.781,9.563,21.344,21.344,21.344h96l21.328-10.656H320l21.328,10.656h85.344
			c11.781,0,21.328-9.563,21.328-21.344V341.34l10.688-21.344v-128L448,170.66z M437.361,314.949l-8.438,16.828l-2.25,4.5v5.063
			v85.313h-80.297l-16.828-8.406l-4.516-2.25H320H202.688h-5.031l-4.5,2.25l-16.828,8.406h-90.97V341.34v-5.063l-2.266-4.5
			l-8.422-16.828V197.043h0.001l8.422-16.82l2.266-4.516v-5.047V85.332h341.313v85.328v5.047l2.25,4.516l8.438,16.82V314.949z"/>
	</g>
</g>
<g>
	<g>
		<path d="M213.328,447.996c-5.891,0-10.656,4.781-10.656,10.656c0,5.906,4.766,10.688,10.656,10.688S224,464.559,224,458.652
			C224,452.777,219.219,447.996,213.328,447.996z"/>
	</g>
</g>
<g>
	<g>
		<path d="M256,447.996c-5.891,0-10.672,4.781-10.672,10.656c0,5.906,4.781,10.688,10.672,10.688s10.672-4.781,10.672-10.688
			C266.672,452.777,261.891,447.996,256,447.996z"/>
	</g>
</g>
<g>
	<g>
		<path d="M298.672,447.996c-5.89,0-10.672,4.781-10.672,10.656c0,5.906,4.781,10.688,10.672,10.688s10.656-4.781,10.656-10.688
			C309.328,452.777,304.562,447.996,298.672,447.996z"/>
	</g>
</g>
<g>
	<g>
		<path d="M106.672,106.66v298.68h298.656V106.66H106.672z M384,383.996H128v-256h256V383.996z"/>
	</g>
</g>
<g>
	<g>
		<path d="M202.906,270.488c-1.234,9.898-6.578,15.227-15.516,15.227c-10.953,0-17.906-8.938-17.906-22.938
			c0-11.336,5.047-23.039,18.094-23.039c8,0,13.516,4.375,15.047,11.805h14.563c-1.141-14-13.047-24.281-29.328-24.281
			c-20.75,0-33.313,15.711-33.313,35.414c0,21.414,13.031,35.601,32.75,35.601c18.563,0,28.844-11.219,30.359-27.789H202.906z"/>
	</g>
</g>
<g>
	<g>
		<path d="M261.953,228.887h-29.219v67.781h14.75v-24.375h15.234c13.625,0,24.094-6.852,24.094-21.609
			C286.812,235.739,276.624,228.887,261.953,228.887z M260.718,260.582h-13.234v-19.516h13.328c6.578,0,11.531,2.57,11.531,9.805
			C272.343,258.394,267.39,260.582,260.718,260.582z"/>
	</g>
</g>
<g>
	<g>
		<path d="M342.719,228.887v40.555c0,9.992-2.391,16.273-13.813,16.273c-11.609,0-14.563-5.906-14.563-16.273v-40.555H299.5v40.555
			c0,19.32,9.031,28.554,29.219,28.554c19.797,0,28.844-9.031,28.844-28.367v-40.742H342.719z"/>
	</g>
</g>
</svg>
