<svg xmlns="http://www.w3.org/2000/svg" width="512" height="512" viewBox="0 0 512 512">
  <path fill="#0143a3" d="M256 21.6V490.2c26.6-14.1 52.9-30.7 79.4-45.8l98.4-57.6 34.6-289.1C397.6 72.3 326.8 47 256 21.6z"/>
  <path fill="#0273d4" d="M256 21.6v468.6c-26.6-14.1-52.9-30.7-79.4-45.8-32.8-19.2-65.6-38.4-98.4-57.6L43.6 97.7C114.4 72.3 185.2 47 256 21.6z" />
  <path fill="#ffffff" d="m212.5 221.8 63.8 0q14.1 0 23.4-7.8 9.4-8.1 9.4-23.1 0-16.9-8.4-23.7-8.4-6.9-24.4-6.9l-63.7 0 0 61.6zm-39.1-93.4 108.4 0q30 0 48.1 13.8 18.1 13.8 18.1 41.6 0 16.9-8.4 29.1-8.1 11.9-23.4 18.4l0 0.6q20.6 4.4 31.3 19.7 10.6 15 10.6 37.8 0 13.1-4.7 24.7-4.7 11.3-14.7 19.7-10 8.1-25.6 13.1-15.6 4.7-37.2 4.7l-102.5 0 0-223.1zm39.1 191.3 69.1 0q17.8 0 27.5-9.1 10-9.4 10-26.2 0-16.6-10-25.3-9.7-9.1-27.5-9.1l-69.1 0 0 69.7z" />
</svg>
