<svg xmlns="http://www.w3.org/2000/svg" width="512" height="512" viewBox="0 0 512 512"><g fill-rule="evenodd"><path d="M256 21.645V490.22c26.62-14.12 52.885-30.737 79.368-45.818l98.395-57.577 34.596-289.08C397.6 72.313 326.78 47.024 256 21.646z" fill="#0143a3"/><path d="M256 21.592v468.576c-26.62-14.12-52.885-30.738-79.368-45.82-32.798-19.19-65.597-38.383-98.395-57.576L43.64 97.692C114.4 72.26 185.22 46.97 256 21.593z" fill="#0273d4"/></g><path d="M208.23 168.102v51.282h64.295q17.228 0 27.885-5.68 10.834-5.84 10.834-20.513 0-16.252-14.21-21.46-12.254-3.628-31.258-3.628H208.23zm0 89.784v62.012h64.295q17.228 0 26.82-4.102 17.405-7.575 17.405-29.034 0-18.146-16.873-24.932-9.413-3.787-26.464-3.944H208.23zm74.952-130.18q48.13.632 68.2 24.774 12.08 14.833 12.08 35.504 0 21.302-12.08 34.24-6.748 7.26-19.89 13.255 20.07 6.47 30.192 20.512 10.302 14.044 10.302 34.083 0 20.67-11.722 37.082-7.46 10.887-18.65 18.304-12.61 8.52-29.837 11.677-17.05 3.156-37.12 3.156H156.013V127.707h127.168z" fill="#fff"/></svg>
