<svg xmlns="http://www.w3.org/2000/svg" width="512" height="512" viewBox="0 0 512 512">
  <path fill="#0143a3" d="M256 21.6V490.2c26.6-14.1 52.9-30.7 79.4-45.8l98.4-57.6 34.6-289.1C397.6 72.3 326.8 47 256 21.6z" />
  <path fill="#0273d4" d="M256 21.6v468.6c-26.6-14.1-52.9-30.7-79.4-45.8-32.8-19.2-65.6-38.4-98.4-57.6L43.6 97.7C114.4 72.3 185.2 47 256 21.6z" />
  <path fill="#fff" d="m207.5 220 69.8 0q15.4 0 25.6-8.6 10.3-8.9 10.3-25.3 0-18.5-9.2-26-9.2-7.6-26.7-7.6l-69.7 0 0 67.6zm-42.8-102.5 118.6 0q32.8 0 52.6 15.1 19.8 15.1 19.8 45.6 0 18.5-9.2 31.9-8.9 13.1-25.6 20.2l0 0.7q22.5 4.8 34.2 21.6 11.6 16.5 11.6 41.5 0 14.4-5.1 27.1-5.1 12.4-16.1 21.6-10.9 8.9-28 14.4-17.1 5.2-40.7 5.2l-112.1 0 0-244.8zm42.8 209.9 75.6 0q19.5 0 30.1-10 10.9-10.3 10.9-28.7 0-18.2-10.9-27.8-10.6-10-30.1-10l-75.6 0 0 76.5z" />
</svg>
