<?xml version="1.0" encoding="iso-8859-1"?>
<!-- Generator: Adobe Illustrator 18.0.0, SVG Export Plug-In . SVG Version: 6.00 Build 0)  -->
<!DOCTYPE svg PUBLIC "-//W3C//DTD SVG 1.1//EN" "http://www.w3.org/Graphics/SVG/1.1/DTD/svg11.dtd">
<svg version="1.1" id="Capa_1" xmlns="http://www.w3.org/2000/svg" xmlns:xlink="http://www.w3.org/1999/xlink" x="0px" y="0px"
	 viewBox="0 0 76.07 76.07" style="enable-background:new 0 0 76.07 76.07;" xml:space="preserve">
<path style="fill:#231F20;" d="M24.915,12.472c0.016-0.524,0.063-2.119,1.276-2.578c1.199-0.451,2.359,0.708,2.58,0.945
	c0.377,0.403,0.355,1.036-0.048,1.413c-0.401,0.375-1.034,0.356-1.41-0.044c-0.096-0.101-0.224-0.207-0.339-0.288
	c-0.026,0.136-0.052,0.333-0.06,0.61c-0.071,2.411,1.809,3.143,1.828,3.15c0.362,0.135,0.613,0.468,0.646,0.853
	c0.553,6.581,5.729,8.709,8.15,8.709s7.598-2.129,8.149-8.709c0.032-0.385,0.283-0.718,0.646-0.853
	c0.187-0.074,1.898-0.822,1.829-3.15c-0.008-0.278-0.033-0.475-0.06-0.611c-0.116,0.081-0.244,0.188-0.34,0.289
	c-0.381,0.4-1.013,0.417-1.412,0.04c-0.4-0.378-0.422-1.006-0.046-1.409c0.223-0.237,1.391-1.395,2.581-0.945
	c1.214,0.458,1.261,2.054,1.276,2.578c0.083,2.84-1.608,4.237-2.54,4.789c-0.846,6.88-6.34,9.983-10.084,9.983
	s-9.238-3.103-10.085-9.983C26.523,16.709,24.832,15.313,24.915,12.472z M37.539,31.071c0,0,2.126-0.47,2.126-2.366h-2.126h-2.126
	C35.412,30.601,37.539,31.071,37.539,31.071z M37.482,49.738l4.154-3.375c-0.436-2.168-2.42-15.081-2.564-15.292
	c-0.824,0.564-1.533,0.64-1.533,0.64s-0.709-0.077-1.533-0.64c-0.144,0.211-2.128,13.125-2.564,15.292L37.482,49.738z
	 M44.517,12.329c0.201,0,0.394,0.081,0.535,0.224c0.141,0.144,0.219,0.338,0.215,0.539c-0.013,0.694-0.132,3.023-1.153,3.854
	c-0.652,0.53-1.671,0.859-2.657,0.859c-0.943,0-1.736-0.299-2.232-0.842c-0.535-0.587-0.89-1.811-1.093-2.725h-1.184
	c-0.203,0.913-0.558,2.138-1.093,2.725c-0.496,0.543-1.289,0.842-2.232,0.842c-0.986,0-2.005-0.329-2.656-0.859
	c-1.022-0.83-1.142-3.159-1.154-3.854c-0.003-0.201,0.074-0.396,0.215-0.539c0.142-0.143,0.334-0.224,0.535-0.224h5.845
	c0.219,0,0.427,0.096,0.569,0.262c0.037,0.043,0.053,0.097,0.079,0.147h0.97c0.026-0.05,0.042-0.104,0.079-0.147
	c0.143-0.166,0.351-0.262,0.569-0.262H44.517z M35.5,13.829h-4.142c0.091,0.878,0.298,1.747,0.552,1.953
	c0.694,0.563,2.374,0.676,2.836,0.169C35.022,15.647,35.31,14.694,35.5,13.829z M43.719,13.829h-4.142
	c0.191,0.865,0.478,1.819,0.754,2.122c0.462,0.507,2.144,0.394,2.837-0.169C43.415,15.58,43.626,14.708,43.719,13.829z M45.563,8.82
	c-0.041,0.551,0.372,1.03,0.923,1.071c0.025,0.002,0.05,0.003,0.075,0.003c0.519,0,0.957-0.4,0.996-0.926
	c0.239-3.209-1.895-4.635-1.985-4.694c-0.459-0.299-1.063-0.168-1.369,0.286c-0.305,0.454-0.182,1.072,0.268,1.383
	C44.521,5.979,45.711,6.828,45.563,8.82z M29.189,10.312c0.553,0,1-0.448,1-1c0-4.721,3.803-4.949,4.218-4.959h8.559
	c0.553,0,1-0.448,1-1s-0.447-1-1-1h-8.572c-2.146,0.029-6.204,1.52-6.204,6.959C28.189,9.864,28.637,10.312,29.189,10.312z
	 M10.305,47.546c0.847,6.88,6.341,9.983,10.085,9.983s9.238-3.103,10.084-9.983c0.932-0.551,2.623-1.948,2.54-4.789
	c-0.016-0.524-0.063-2.119-1.276-2.578c-1.19-0.449-2.359,0.708-2.581,0.945c-0.376,0.402-0.354,1.031,0.046,1.409
	c0.399,0.378,1.031,0.36,1.412-0.04c0.096-0.101,0.224-0.208,0.34-0.289c0.026,0.136,0.052,0.333,0.06,0.611
	c0.069,2.328-1.643,3.076-1.829,3.15c-0.362,0.135-0.613,0.468-0.646,0.853c-0.552,6.581-5.729,8.709-8.149,8.709
	s-7.598-2.129-8.15-8.709c-0.032-0.385-0.283-0.718-0.646-0.853c-0.02-0.007-1.899-0.739-1.828-3.15
	c0.008-0.278,0.033-0.475,0.06-0.61c0.115,0.081,0.242,0.186,0.336,0.285c0.379,0.405,1.013,0.424,1.413,0.048
	c0.403-0.377,0.425-1.01,0.048-1.413c-0.221-0.237-1.383-1.398-2.58-0.945c-1.214,0.458-1.261,2.053-1.276,2.578
	C7.683,45.598,9.374,46.995,10.305,47.546z M18.234,58.991c0,1.896,2.09,2.366,2.09,2.366s2.09-0.47,2.09-2.366h-2.09H18.234z
	 M17.203,58.566c-0.233-0.5-0.831-0.717-1.33-0.48l-2.174,1.021l-0.197-3.603c-0.029-0.552-0.504-0.971-1.053-0.944
	c-0.552,0.03-0.974,0.502-0.943,1.053l0.042,0.774C8.981,57.36,0,61.563,0,72.718c0,0.552,0.447,1,1,1s1-0.448,1-1
	c0-9.323,6.896-13.101,9.663-14.242l0.122,2.219c0.018,0.332,0.2,0.633,0.485,0.804c0.157,0.094,0.335,0.142,0.513,0.142
	c0.145,0,0.29-0.031,0.425-0.095l3.516-1.65C17.223,59.661,17.438,59.066,17.203,58.566z M22.5,29.705
	c0.269,0,0.537-0.108,0.734-0.321c1.75-1.893,3.911-3.31,6.25-4.097c0.523-0.176,0.805-0.743,0.628-1.267
	c-0.175-0.523-0.738-0.805-1.267-0.629c-2.654,0.894-5.103,2.496-7.08,4.634c-0.375,0.406-0.35,1.039,0.056,1.414
	C22.014,29.617,22.257,29.705,22.5,29.705z M8.763,69.699c-0.553,0-1,0.448-1,1v2.019c0,0.552,0.447,1,1,1s1-0.448,1-1v-2.019
	C9.763,70.147,9.315,69.699,8.763,69.699z M32.016,69.699c-0.553,0-1,0.448-1,1v2.019c0,0.552,0.447,1,1,1s1-0.448,1-1v-2.019
	C33.016,70.147,32.568,69.699,32.016,69.699z M29.117,56.387l0.042-0.774c0.03-0.551-0.392-1.023-0.943-1.053
	c-0.549-0.025-1.023,0.393-1.053,0.944l-0.197,3.603l-2.174-1.021c-0.503-0.236-1.097-0.019-1.33,0.48
	c-0.234,0.5-0.02,1.095,0.48,1.33l3.516,1.65c0.135,0.063,0.28,0.095,0.425,0.095c0.178,0,0.355-0.047,0.513-0.142
	c0.285-0.17,0.468-0.472,0.485-0.804l0.122-2.219c2.767,1.141,9.663,4.918,9.663,14.242c0,0.552,0.447,1,1,1s1-0.448,1-1
	C40.665,61.563,31.684,57.36,29.117,56.387z M11.378,39.527c0.051,0.008,0.101,0.011,0.15,0.011c0.486,0,0.913-0.355,0.988-0.851
	c0.151-1.004,0.551-1.921,1.155-2.651c0.352-0.425,0.293-1.056-0.133-1.408c-0.425-0.352-1.056-0.292-1.408,0.133
	c-0.836,1.01-1.387,2.265-1.593,3.629C10.456,38.936,10.832,39.445,11.378,39.527z M15.143,35.133h8.181
	c0.411,0.01,4.019,0.229,4.019,4.71c0,0.552,0.447,1,1,1s1-0.448,1-1c0-5.244-3.916-6.682-6-6.71h-8.199c-0.553,0-1,0.448-1,1
	S14.59,35.133,15.143,35.133z M15.937,32.364h8.083c0.208-0.002,5.096,0.021,5.675,4.975c0.06,0.509,0.491,0.884,0.992,0.884
	c0.038,0,0.078-0.002,0.117-0.007c0.549-0.064,0.941-0.561,0.877-1.109c-0.634-5.419-5.313-6.775-7.673-6.742h-8.071
	c-0.553,0-1,0.448-1,1S15.384,32.364,15.937,32.364z M43.195,60.988c-0.553,0-1,0.448-1,1v10.688c0,0.552,0.447,1,1,1s1-0.448,1-1
	V61.988C44.195,61.436,43.748,60.988,43.195,60.988z M68.28,60.988c-0.553,0-1,0.448-1,1v10.688c0,0.552,0.447,1,1,1s1-0.448,1-1
	V61.988C69.28,61.436,68.833,60.988,68.28,60.988z M55.793,19.6c0.002,0,0.004,0,0.004,0c5.266,0,9.862,4.017,10.837,9.298
	c0.167,0.006,0.337,0.031,0.509,0.095c1.214,0.458,1.261,2.053,1.276,2.578c0.083,2.84-1.608,4.237-2.539,4.789
	c-0.847,6.88-6.341,9.983-10.085,9.983s-9.238-3.103-10.085-9.983c-0.931-0.551-2.622-1.948-2.539-4.789
	c0.016-0.524,0.063-2.119,1.276-2.578c0.172-0.065,0.342-0.089,0.509-0.095C45.931,23.618,50.528,19.6,55.793,19.6z M46.846,29.76
	c0.08,0.075,0.147,0.14,0.183,0.178c0.377,0.403,0.355,1.036-0.048,1.414c-0.401,0.376-1.034,0.357-1.413-0.047
	c-0.094-0.099-0.222-0.205-0.337-0.286c-0.026,0.136-0.052,0.333-0.06,0.611c-0.071,2.411,1.809,3.143,1.828,3.15
	c0.362,0.135,0.613,0.468,0.646,0.853c0.553,6.581,5.729,8.709,8.15,8.709s7.598-2.129,8.15-8.709
	c0.032-0.385,0.283-0.718,0.646-0.853c0.187-0.074,1.897-0.822,1.828-3.15c-0.008-0.278-0.033-0.475-0.06-0.61
	c-0.115,0.081-0.243,0.188-0.339,0.288c-0.381,0.4-1.013,0.417-1.412,0.04c-0.4-0.378-0.422-1.007-0.046-1.409
	c0.035-0.038,0.102-0.104,0.183-0.179c-0.596-4.593-4.477-8.159-8.948-8.159c-0.001,0-0.001,0-0.002,0h-0.001
	C51.323,21.6,47.441,25.166,46.846,29.76z M49.22,35.832c-1.281-1.414-1.076-3.667-1.066-3.763c0.037-0.384,0.36-0.676,0.746-0.676
	h4.994h1.012h1.78h1.252h4.754c0.386,0,0.709,0.292,0.746,0.677c0.01,0.095,0.215,2.349-1.067,3.763
	c-0.659,0.728-1.563,1.096-2.688,1.096c-1.146,0-2.063-0.375-2.723-1.114c-0.247-0.277-0.423-0.587-0.569-0.904h-1.192
	c-0.146,0.317-0.322,0.628-0.569,0.904c-0.66,0.739-1.576,1.114-2.723,1.114C50.783,36.928,49.879,36.56,49.22,35.832z
	 M55.968,33.41c-0.023-0.185-0.037-0.359-0.044-0.518h-0.257c-0.007,0.158-0.021,0.332-0.045,0.518H55.968z M57.424,32.893
	c0.031,0.569,0.169,1.381,0.658,1.927c0.368,0.41,0.892,0.609,1.601,0.609c0.69,0,1.205-0.196,1.573-0.6
	c0.497-0.545,0.646-1.36,0.687-1.936h-4.005H57.424z M49.648,32.893c0.039,0.575,0.189,1.391,0.686,1.936
	c0.368,0.403,0.883,0.6,1.573,0.6c0.711,0,1.235-0.201,1.604-0.613c0.484-0.542,0.622-1.353,0.654-1.922h-0.272H49.648z
	 M76.07,61.531v11.176c0,0.552-0.447,1-1,1s-1-0.448-1-1V61.531c0-5.992-2.742-9.704-5.374-11.896
	c-4.522,4.711-8.86,7.105-12.901,7.105c-4.072,0-8.447-2.431-13.007-7.215c-2.8,2.309-4.675,5.59-5.174,9.314
	c-0.073,0.547-0.576,0.927-1.124,0.858c-0.548-0.074-0.932-0.577-0.858-1.124c0.85-6.332,5.184-11.542,11.311-13.597
	c0.391-0.13,0.816-0.01,1.08,0.301c0.04,0.047,4.038,4.692,7.773,4.692c3.728,0,7.611-4.635,7.65-4.682
	c0.257-0.31,0.673-0.437,1.059-0.32C64.619,45.002,76.07,48.596,76.07,61.531z M67.062,48.435c-1.056-0.677-1.984-1.107-2.549-1.336
	c-1.27,1.373-4.881,4.872-8.718,4.872c-3.845,0-7.542-3.519-8.827-4.878c-0.893,0.342-1.736,0.765-2.528,1.254
	c4.089,4.231,7.909,6.395,11.356,6.395C59.216,54.741,63.007,52.605,67.062,48.435z M17.643,67.663l5.844,2.785
	c-0.175-1.012-0.379-2.19-0.585-3.369l-4.728-2.43C18.007,65.587,17.824,66.63,17.643,67.663z M18.818,61.356
	c-0.031,0.046-0.13,0.522-0.266,1.238l3.914,2.012c-0.32-1.788-0.58-3.168-0.635-3.249c-0.81,0.564-1.507,0.64-1.507,0.64
	S19.628,61.92,18.818,61.356z M16.768,72.718h6.837l-6.316-3.009C17.063,71.008,16.872,72.123,16.768,72.718z M20.504,43.125v4.719
	h-1.229c-0.553,0-1,0.448-1,1s0.447,1,1,1h2.229c0.553,0,1-0.448,1-1v-5.719c0-0.552-0.447-1-1-1S20.504,42.572,20.504,43.125z"/>
<g>
</g>
<g>
</g>
<g>
</g>
<g>
</g>
<g>
</g>
<g>
</g>
<g>
</g>
<g>
</g>
<g>
</g>
<g>
</g>
<g>
</g>
<g>
</g>
<g>
</g>
<g>
</g>
<g>
</g>
</svg>
