<?xml version="1.0" encoding="iso-8859-1"?>
<!-- Generator: Adobe Illustrator 19.0.0, SVG Export Plug-In . SVG Version: 6.00 Build 0)  -->
<svg version="1.1" id="Layer_1" xmlns="http://www.w3.org/2000/svg" xmlns:xlink="http://www.w3.org/1999/xlink" x="0px" y="0px"
	 viewBox="0 0 512 512" style="enable-background:new 0 0 512 512;" xml:space="preserve">
<g>
	<g>
		<path d="M508.045,211.558c-11.871-67.324-49.248-125.995-105.248-165.206C346.799,7.14,278.884-7.914,211.558,3.955
			C144.234,15.825,85.563,53.203,46.353,109.202C7.141,165.201-7.916,233.118,3.955,300.441
			c11.871,67.324,49.248,125.995,105.248,165.206C152.717,496.116,203.421,512,255.457,512c14.931,0,29.975-1.309,44.985-3.955
			c67.324-11.871,125.995-49.248,165.206-105.248C504.859,346.797,519.915,278.88,508.045,211.558z M459.3,130.592
			c2.121,3.439,4.153,6.931,6.095,10.478l-5.12,0.902c-6.667,1.176-12.777,4.269-17.672,8.944l-4.926,4.705
			c-4.583,4.379-11.3,5.834-17.268,3.784l-30.621-17.495l2.725-10.465l14.236-2.508l2.373,13.454
			c0.735,4.167,4.358,7.099,8.447,7.099c0.495,0,0.997-0.044,1.501-0.132c4.672-0.824,7.79-5.278,6.967-9.949l-1.773-10.054
			l5.984,1.781c6.321,1.879,13.097,2.267,19.589,1.123L459.3,130.592z M468.603,364.704c-4.726-0.765-9.012-3.474-11.697-7.577
			l-18.567-28.374c-4.448-6.798-7.419-14.301-8.829-22.301l-4.973-28.205c-1.186-6.726-4.31-12.871-9.037-17.773
			c-3.293-3.414-8.73-3.514-12.144-0.221c-3.414,3.292-3.513,8.729-0.221,12.144c2.344,2.431,3.896,5.485,4.485,8.832l4.973,28.205
			c1.817,10.305,5.643,19.968,11.372,28.723l18.567,28.374c4.207,6.43,10.379,11.14,17.403,13.612
			c-2.645,4.332-5.421,8.605-8.358,12.8c-36.579,52.241-91.312,87.11-154.118,98.184c-62.806,11.077-126.164-2.973-178.404-39.552
			c-52.241-36.579-87.11-91.312-98.184-154.118c-4.75-26.936-4.864-53.971-0.577-80.19l12.078,22.305
			c6.179,11.41,18.919,17.565,31.693,15.309l0.687-0.12l3.708,4.999c6.328,8.531,16.049,13.564,26.668,13.806l7.174,0.164
			c0.068,0.001,0.134,0.002,0.2,0.002c4.653,0,8.475-3.717,8.583-8.392c0.109-4.742-3.648-8.674-8.39-8.782l-7.174-0.164
			c-5.282-0.12-10.117-2.625-13.264-6.867l-6.871-9.263c-1.939-2.613-5.186-3.908-8.39-3.341l-5.914,1.043
			c-5.484,0.968-10.953-1.673-13.605-6.572l-21.516-39.736c7.191-25.636,18.738-50.15,34.462-72.606
			c2.733-3.904,5.58-7.698,8.513-11.405l7.594,5.318c7.732,5.415,18.426,3.528,23.84-4.204l4.449-6.354
			c3.912-5.586,9.763-9.314,16.478-10.497l1.729-0.305l0.775,4.395l0.245,1.389v0.001l1.481,8.398
			c0.735,4.167,4.358,7.098,8.447,7.098c0.495,0,0.997-0.044,1.501-0.132c4.672-0.824,7.79-5.278,6.967-9.949l-0.412-2.337
			l32.846-18.008l33.253-5.864l-2.329,1.039c-5.816,2.594-9.41,8.16-9.381,14.529c0.029,6.368,3.675,11.902,9.515,14.442
			l22.711,9.82l-1.624,4.951c-1.477,4.507,0.98,9.358,5.487,10.835c0.887,0.291,1.79,0.429,2.675,0.429
			c3.612,0,6.974-2.297,8.159-5.917l1.621-4.948c2.767-8.443-1.291-17.482-9.438-21.026l-19.936-8.673l22.752-10.147
			c3.599-1.605,5.644-5.454,4.961-9.334l-1.867-10.591c-0.395-2.243-1.666-4.238-3.531-5.545c-1.865-1.307-4.175-1.817-6.417-1.423
			l-60.988,10.755c-0.924,0.164-1.815,0.476-2.637,0.928L138.88,82.611l-0.431-2.444c-0.823-4.671-5.273-7.789-9.949-6.966
			l-10.187,1.796c-11.233,1.981-21.023,8.217-27.566,17.561l-4.366,6.339l-6.269-4.39c35.301-38.607,82.053-64.401,134.429-73.637
			c14.007-2.47,28.034-3.69,41.967-3.69c38.168,0,75.574,9.169,109.553,26.904l-6.739,9.611c-2.964,4.232-4.103,9.366-3.205,14.453
			l3.147,17.845c0.687,3.892-0.184,7.82-2.452,11.059c-1.289,1.842-3.01,3.387-4.981,4.473l-23.789,12.024
			c-4.233,2.14-5.93,7.306-3.791,11.539c1.512,2.991,4.535,4.717,7.672,4.717c1.303,0,2.625-0.298,3.867-0.925l23.911-12.084
			c0.072-0.037,0.144-0.074,0.215-0.113c4.343-2.351,8.136-5.732,10.968-9.778c4.9-6.998,6.78-15.483,5.297-23.894l-3.147-17.845
			c-0.099-0.561,0.031-1.15,0.358-1.618l7.67-10.939c4.019,2.479,7.984,5.082,11.885,7.813c1.471,1.031,2.925,2.08,4.369,3.139
			l-5.78,5.292c-3.498,3.203-3.739,8.635-0.536,12.133c1.694,1.85,4.011,2.789,6.337,2.789c2.071,0,4.149-0.744,5.797-2.254
			l7.835-7.172c14.279,12.138,26.945,25.778,37.842,40.652l-1.951,0.344c-3.88,0.686-7.93,0.453-11.71-0.671l-7.61-2.265
			c-6.322-1.879-13.096-2.267-19.59-1.123l-23.841,4.204c-3.308,0.584-5.973,3.043-6.82,6.293l-5.772,22.161
			c-0.978,3.754,0.682,7.697,4.05,9.622l36.959,21.116c0.381,0.218,0.777,0.405,1.187,0.562c3.938,1.509,8.062,2.242,12.16,2.242
			c8.668,0,17.225-3.282,23.675-9.444l4.926-4.705c2.434-2.326,5.475-3.865,8.79-4.449l10.143-1.789
			c8.198,18.103,14.183,37.355,17.725,57.439C500.275,266.411,492.27,318.653,468.603,364.704z"/>
	</g>
</g>
<g>
	<g>
		<path d="M272.96,450.07l-5.561-31.528c-0.823-4.671-5.278-7.791-9.949-6.967c-4.671,0.823-7.79,5.278-6.967,9.949l5.559,31.53
			c0.11,0.622-0.109,1.09-0.311,1.373c-0.203,0.284-0.576,0.642-1.268,0.748c-0.703,0.113-1.413-0.208-1.801-0.807l-16.926-26.117
			c-5.618-8.668-9.376-18.222-11.168-28.384l-0.995-5.691c-0.816-4.672-5.265-7.797-9.939-6.981
			c-4.672,0.816-7.798,5.267-6.981,9.939l0.997,5.703c2.195,12.452,6.796,24.144,13.671,34.754l16.926,26.117
			c3.528,5.443,9.566,8.657,15.97,8.657c0.973,0,1.955-0.074,2.936-0.226c5.09-0.787,9.544-3.526,12.542-7.712
			C272.695,460.241,273.853,455.142,272.96,450.07z"/>
	</g>
</g>
<g>
	<g>
		<path d="M181.774,101.152c-2.939-3.722-8.34-4.356-12.062-1.416l-12.89,10.181c-3.722,2.94-4.357,8.341-1.417,12.063
			c1.695,2.146,4.207,3.266,6.745,3.266c1.863,0,3.741-0.605,5.318-1.849l12.89-10.181
			C184.079,110.275,184.715,104.873,181.774,101.152z"/>
	</g>
</g>
<g>
	<g>
		<path d="M346.993,84.062l-2.962-16.799c-0.823-4.672-5.275-7.789-9.949-6.967c-4.672,0.824-7.79,5.278-6.967,9.949l2.962,16.799
			c0.735,4.167,4.358,7.098,8.447,7.098c0.495,0,0.997-0.044,1.501-0.132C344.698,93.186,347.816,88.733,346.993,84.062z"/>
	</g>
</g>
<g>
	<g>
		<path d="M308.327,146.598c-19.312,0-37.623,6.63-52.371,18.821c-14.748-12.191-33.06-18.821-52.371-18.821
			c-45.645,0-82.78,37.44-82.78,83.459c0,28.463,15.226,61.717,42.875,93.638c24.819,28.655,57.127,53.545,88.638,68.288
			c1.153,0.539,2.397,0.81,3.639,0.81c1.244,0,2.486-0.27,3.639-0.81c31.511-14.743,63.818-39.633,88.636-68.288
			c27.648-31.921,42.875-65.176,42.875-93.638C391.107,184.037,353.972,146.598,308.327,146.598z M255.956,374.676
			c-56.551-27.966-117.975-93.004-117.975-144.618c0-36.548,29.43-66.283,65.604-66.283c17.463,0,33.899,6.859,46.281,19.313
			c1.612,1.621,3.804,2.533,6.09,2.533c2.286,0,4.479-0.912,6.091-2.533c12.382-12.454,28.818-19.313,46.28-19.313
			c36.174,0,65.604,29.735,65.604,66.283C373.931,281.672,312.507,346.71,255.956,374.676z"/>
	</g>
</g>
<g>
</g>
<g>
</g>
<g>
</g>
<g>
</g>
<g>
</g>
<g>
</g>
<g>
</g>
<g>
</g>
<g>
</g>
<g>
</g>
<g>
</g>
<g>
</g>
<g>
</g>
<g>
</g>
<g>
</g>
</svg>
