<?xml version="1.0" encoding="iso-8859-1"?>
<!-- Generator: Adobe Illustrator 19.0.0, SVG Export Plug-In . SVG Version: 6.00 Build 0)  -->
<svg version="1.1" id="Layer_1" xmlns="http://www.w3.org/2000/svg" xmlns:xlink="http://www.w3.org/1999/xlink" x="0px" y="0px"
	 viewBox="0 0 512 512" style="enable-background:new 0 0 512 512;" xml:space="preserve">
<g>
	<g>
		<g>
			<path d="M330.667,149.333c17.643,0,32-14.357,32-32c0-17.643-14.357-32-32-32c-17.643,0-32,14.357-32,32
				C298.667,134.976,313.024,149.333,330.667,149.333z M330.667,106.667c5.888,0,10.667,4.779,10.667,10.667
				S336.555,128,330.667,128S320,123.221,320,117.333S324.779,106.667,330.667,106.667z"/>
			<path d="M458.667,341.333h-38.251l-57.749-57.749v-80.917c0-17.643-14.357-32-32-32c-17.643,0-32,14.357-32,32v16.917
				L171.2,92.117C153.067,73.984,128.96,64,103.317,64H53.333C23.936,64,0,87.936,0,117.333c0,29.397,23.936,53.333,53.333,53.333
				h27.584l249.216,249.216C348.267,438.016,372.373,448,398.016,448h60.651C488.064,448,512,424.064,512,394.667
				S488.064,341.333,458.667,341.333z M320,202.667c0-5.888,4.779-10.667,10.667-10.667s10.667,4.779,10.667,10.667v59.584
				L320,240.917V202.667z M458.688,426.667h-60.651c-19.947,0-38.699-7.765-52.8-21.867L92.885,152.448
				c-2.005-1.984-4.715-3.115-7.552-3.115h-32c-17.643,0-32-14.357-32-32c0-17.643,14.357-32,32-32h49.984
				c19.947,0,38.699,7.765,52.8,21.867l145.621,145.621c0.021,0.021,0.021,0.043,0.043,0.064l42.667,42.667
				c0.021,0.021,0.043,0.021,0.064,0.043l63.957,63.957c2.005,1.984,4.715,3.115,7.552,3.115h42.667c17.643,0,32,14.357,32,32
				S476.331,426.667,458.688,426.667z"/>
			<path d="M79.061,298.667h38.272c5.888,0,10.667-4.779,10.667-10.667s-4.779-10.667-10.667-10.667h-64
				c-0.619,0-1.173,0.256-1.771,0.363c-0.768,0.128-1.557,0.171-2.304,0.469c-1.301,0.533-2.496,1.323-3.477,2.304
				c-0.085,0.085-0.107,0.213-0.213,0.299c-0.853,0.917-1.6,1.963-2.091,3.136c-0.533,1.344-0.811,2.731-0.811,4.139V352
				c0,5.888,4.779,10.667,10.667,10.667S64,357.888,64,352v-38.229l109.781,109.781c2.091,2.069,4.821,3.115,7.552,3.115
				c2.731,0,5.461-1.045,7.531-3.115c4.16-4.16,4.16-10.923,0-15.083L79.061,298.667z"/>
		</g>
	</g>
</g>
<g>
</g>
<g>
</g>
<g>
</g>
<g>
</g>
<g>
</g>
<g>
</g>
<g>
</g>
<g>
</g>
<g>
</g>
<g>
</g>
<g>
</g>
<g>
</g>
<g>
</g>
<g>
</g>
<g>
</g>
</svg>
